<mxfile host="app.diagrams.net" modified="2023-11-22T11:28:10.740Z" agent="Mozilla/5.0 (X11; Linux x86_64) AppleWebKit/537.36 (KHTML, like Gecko) Chrome/118.0.0.0 Safari/537.36" version="22.1.3" etag="_GsP6gVYneI-CGE0cBOE" type="github">
  <diagram name="PÃ¡gina-1" id="PBqoPJfw-2Rm_bc7q_K6">
    <mxGraphModel>
      <root>
        <mxCell id="0" />
        <mxCell id="1" parent="0" />
      </root>
    </mxGraphModel>
  </diagram>
</mxfile>
